<svg width="20" height="20" viewBox="0 0 20 20" fill="none" xmlns="http://www.w3.org/2000/svg">
<g clip-path="url(#clip0_46_40)">
<path d="M7.47142 3.21428L8.0857 1.62856C8.1893 1.36008 8.37157 1.12915 8.60863 0.966011C8.8457 0.80287 9.1265 0.715129 9.41428 0.714279H10.5857C10.8735 0.715129 11.1543 0.80287 11.3913 0.966011C11.6284 1.12915 11.8107 1.36008 11.9143 1.62856L12.5286 3.21428L14.6143 4.41428L16.3 4.15714C16.5807 4.11904 16.8664 4.16524 17.1207 4.28988C17.3751 4.41452 17.5867 4.61197 17.7286 4.85714L18.3 5.85714C18.4464 6.10621 18.5139 6.39382 18.4935 6.68202C18.4731 6.97022 18.3658 7.24547 18.1857 7.47142L17.1428 8.79999V11.2L18.2143 12.5286C18.3943 12.7545 18.5016 13.0298 18.522 13.318C18.5425 13.6062 18.475 13.8938 18.3286 14.1429L17.7571 15.1429C17.6152 15.388 17.4037 15.5855 17.1493 15.7101C16.8949 15.8347 16.6093 15.881 16.3286 15.8429L14.6428 15.5857L12.5571 16.7857L11.9428 18.3714C11.8392 18.6399 11.657 18.8708 11.4199 19.034C11.1829 19.1971 10.902 19.2849 10.6143 19.2857H9.41428C9.1265 19.2849 8.8457 19.1971 8.60863 19.034C8.37157 18.8708 8.1893 18.6399 8.0857 18.3714L7.47142 16.7857L5.3857 15.5857L3.69999 15.8429C3.4193 15.881 3.13362 15.8347 2.87925 15.7101C2.62488 15.5855 2.41331 15.388 2.27142 15.1429L1.69999 14.1429C1.55356 13.8938 1.4861 13.6062 1.5065 13.318C1.52691 13.0298 1.63422 12.7545 1.81428 12.5286L2.85713 11.2V8.79999L1.7857 7.47142C1.60565 7.24547 1.49834 6.97022 1.47793 6.68202C1.45753 6.39382 1.52499 6.10621 1.67142 5.85714L2.24285 4.85714C2.38474 4.61197 2.59631 4.41452 2.85068 4.28988C3.10505 4.16524 3.39073 4.11904 3.67142 4.15714L5.35713 4.41428L7.47142 3.21428ZM7.14285 9.99999C7.14285 10.5651 7.31042 11.1175 7.62436 11.5873C7.93831 12.0572 8.38453 12.4234 8.90661 12.6396C9.42868 12.8559 10.0032 12.9125 10.5574 12.8022C11.1116 12.692 11.6207 12.4199 12.0203 12.0203C12.4199 11.6207 12.692 11.1116 12.8022 10.5574C12.9125 10.0032 12.8559 9.42869 12.6396 8.90661C12.4234 8.38454 12.0572 7.93831 11.5873 7.62437C11.1175 7.31042 10.5651 7.14285 9.99999 7.14285C9.24223 7.14285 8.5155 7.44387 7.97969 7.97969C7.44387 8.51551 7.14285 9.24223 7.14285 9.99999Z" stroke="#181818" stroke-linecap="round" stroke-linejoin="round"/>
</g>
<defs>
<clipPath id="clip0_46_40">
<rect width="20" height="20" fill="white"/>
</clipPath>
</defs>
</svg>
