<svg width="22" height="22" viewBox="0 0 22 22" fill="none" xmlns="http://www.w3.org/2000/svg">
<path d="M11 1.83333C9.7962 1.83333 8.6042 2.07043 7.49205 2.5311C6.3799 2.99177 5.36937 3.66698 4.51817 4.51818C2.79908 6.23727 1.83331 8.56884 1.83331 11C1.83331 15.0517 4.46415 18.4892 8.10331 19.7083C8.56165 19.7817 8.70831 19.4975 8.70831 19.25V17.7008C6.16915 18.2508 5.62831 16.4725 5.62831 16.4725C5.20665 15.4092 4.61081 15.125 4.61081 15.125C3.77665 14.5567 4.67498 14.575 4.67498 14.575C5.59165 14.6392 6.07748 15.5192 6.07748 15.5192C6.87498 16.9125 8.22248 16.5 8.74498 16.28C8.82748 15.6842 9.06581 15.2808 9.32248 15.0517C7.28748 14.8225 5.15165 14.0342 5.15165 10.5417C5.15165 9.52416 5.49998 8.70833 6.09581 8.05749C6.00415 7.82833 5.68331 6.87499 6.18748 5.63749C6.18748 5.63749 6.95748 5.38999 8.70831 6.57249C9.43248 6.37083 10.2208 6.26999 11 6.26999C11.7791 6.26999 12.5675 6.37083 13.2916 6.57249C15.0425 5.38999 15.8125 5.63749 15.8125 5.63749C16.3166 6.87499 15.9958 7.82833 15.9041 8.05749C16.5 8.70833 16.8483 9.52416 16.8483 10.5417C16.8483 14.0433 14.7033 14.8133 12.6591 15.0425C12.9891 15.3267 13.2916 15.8858 13.2916 16.7383V19.25C13.2916 19.4975 13.4383 19.7908 13.9058 19.7083C17.545 18.48 20.1666 15.0517 20.1666 11C20.1666 9.79621 19.9295 8.60421 19.4689 7.49206C19.0082 6.37991 18.333 5.36939 17.4818 4.51818C16.6306 3.66698 15.6201 2.99177 14.5079 2.5311C13.3958 2.07043 12.2038 1.83333 11 1.83333Z" fill="white"/>
</svg>
