<svg width="22" height="22" viewBox="0 0 22 22" fill="none" xmlns="http://www.w3.org/2000/svg">
<path d="M1.83331 8.25001V5.50001C1.83331 4.99584 2.01298 4.56409 2.37231 4.20476C2.73165 3.84542 3.16309 3.66606 3.66665 3.66667H18.3333C18.8375 3.66667 19.2692 3.84634 19.6286 4.20567C19.9879 4.56501 20.1673 4.99645 20.1666 5.50001V8.25001H18.3333V5.50001H3.66665V8.25001H1.83331ZM3.66665 18.3333C3.16248 18.3333 2.73073 18.1537 2.3714 17.7943C2.01206 17.435 1.8327 17.0036 1.83331 16.5V13.75H3.66665V16.5H18.3333V13.75H20.1666V16.5C20.1666 17.0042 19.987 17.4359 19.6276 17.7953C19.2683 18.1546 18.8369 18.334 18.3333 18.3333H3.66665ZM9.16665 15.5833C9.3347 15.5833 9.49512 15.5412 9.6479 15.4568C9.80068 15.3725 9.91526 15.2466 9.99165 15.0792L12.8333 9.39584L13.8416 11.4125C13.918 11.5806 14.0326 11.7068 14.1854 11.7911C14.3382 11.8754 14.4986 11.9173 14.6666 11.9167H20.1666V10.0833H15.2396L13.6583 6.92084C13.5819 6.75278 13.4673 6.63423 13.3146 6.56517C13.1618 6.49612 13.0014 6.4619 12.8333 6.46251C12.6653 6.46251 12.5048 6.49703 12.3521 6.56609C12.1993 6.63515 12.0847 6.7534 12.0083 6.92084L9.16665 12.6042L8.15831 10.5875C8.08193 10.4195 7.96734 10.2933 7.81456 10.2089C7.66179 10.1246 7.50137 10.0827 7.33331 10.0833H1.83331V11.9167H6.7604L8.34165 15.0792C8.41804 15.2472 8.53262 15.3734 8.6854 15.4578C8.83818 15.5421 8.99859 15.584 9.16665 15.5833Z" fill="#181818"/>
</svg>
