<svg width="22" height="22" viewBox="0 0 22 22" fill="none" xmlns="http://www.w3.org/2000/svg">
<path d="M11 20.1667C9.7962 20.1667 8.6042 19.9296 7.49205 19.4689C6.3799 19.0082 5.36937 18.333 4.51817 17.4818C2.79908 15.7627 1.83331 13.4311 1.83331 11C1.83331 8.56884 2.79908 6.23727 4.51817 4.51818C6.23725 2.7991 8.56883 1.83333 11 1.83333C16.0416 1.83333 20.1666 5.49999 20.1666 10.0833C20.1666 11.542 19.5872 12.941 18.5557 13.9724C17.5243 15.0039 16.1253 15.5833 14.6666 15.5833H13.0166C12.7416 15.5833 12.5583 15.7667 12.5583 16.0417C12.5583 16.1333 12.65 16.225 12.65 16.3167C13.0166 16.775 13.2 17.325 13.2 17.875C13.2916 19.1583 12.2833 20.1667 11 20.1667ZM11 3.66666C9.05506 3.66666 7.1898 4.43928 5.81453 5.81455C4.43926 7.18981 3.66665 9.05507 3.66665 11C3.66665 12.9449 4.43926 14.8102 5.81453 16.1854C7.1898 17.5607 9.05506 18.3333 11 18.3333C11.275 18.3333 11.4583 18.15 11.4583 17.875C11.4583 17.6917 11.3666 17.6 11.3666 17.5083C11 17.05 10.8166 16.5917 10.8166 16.0417C10.8166 14.7583 11.825 13.75 13.1083 13.75H14.6666C15.6391 13.75 16.5717 13.3637 17.2594 12.6761C17.947 11.9884 18.3333 11.0558 18.3333 10.0833C18.3333 6.50833 15.0333 3.66666 11 3.66666ZM5.95831 9.16666C6.69165 9.16666 7.33331 9.80833 7.33331 10.5417C7.33331 11.275 6.69165 11.9167 5.95831 11.9167C5.22498 11.9167 4.58331 11.275 4.58331 10.5417C4.58331 9.80833 5.22498 9.16666 5.95831 9.16666ZM8.70831 5.49999C9.44165 5.49999 10.0833 6.14166 10.0833 6.875C10.0833 7.60833 9.44165 8.25 8.70831 8.25C7.97498 8.25 7.33331 7.60833 7.33331 6.875C7.33331 6.14166 7.97498 5.49999 8.70831 5.49999ZM13.2916 5.49999C14.025 5.49999 14.6666 6.14166 14.6666 6.875C14.6666 7.60833 14.025 8.25 13.2916 8.25C12.5583 8.25 11.9166 7.60833 11.9166 6.875C11.9166 6.14166 12.5583 5.49999 13.2916 5.49999ZM16.0416 9.16666C16.775 9.16666 17.4166 9.80833 17.4166 10.5417C17.4166 11.275 16.775 11.9167 16.0416 11.9167C15.3083 11.9167 14.6666 11.275 14.6666 10.5417C14.6666 9.80833 15.3083 9.16666 16.0416 9.16666Z" fill="#181818"/>
</svg>
