<svg width="20" height="20" viewBox="0 0 20 20" fill="none" xmlns="http://www.w3.org/2000/svg">
<path d="M2.49997 6.875C2.49988 6.14985 2.68005 5.43604 3.02426 4.79778C3.36847 4.15952 3.86594 3.61683 4.47191 3.21852C5.07789 2.82021 5.77337 2.57878 6.4958 2.51593C7.21823 2.45308 7.94495 2.57079 8.61061 2.85847C9.27626 3.14616 9.85997 3.59479 10.3092 4.16402C10.7585 4.73325 11.0592 5.40522 11.1843 6.1195C11.3095 6.83378 11.2551 7.56797 11.0261 8.25602C10.7971 8.94407 10.4007 9.56442 9.87247 10.0613C10.8685 10.5446 11.7333 11.261 12.3935 12.1496C13.0537 13.0383 13.4898 14.0731 13.665 15.1663C13.6843 15.2879 13.6794 15.4121 13.6507 15.5319C13.6219 15.6517 13.5699 15.7646 13.4975 15.8642C13.4252 15.9639 13.3339 16.0483 13.2289 16.1127C13.1239 16.177 13.0072 16.2201 12.8856 16.2394C12.764 16.2587 12.6397 16.2538 12.52 16.2251C12.4002 16.1963 12.2873 16.1443 12.1876 16.0719C12.088 15.9996 12.0036 15.9083 11.9392 15.8033C11.8748 15.6983 11.8318 15.5816 11.8125 15.46C11.625 14.2854 11.0249 13.2161 10.1199 12.4441C9.21498 11.6722 8.06446 11.2481 6.87497 11.2481C5.68549 11.2481 4.53497 11.6722 3.63001 12.4441C2.72506 13.2161 2.12496 14.2854 1.93747 15.46C1.9181 15.5816 1.87497 15.6983 1.81052 15.8032C1.74608 15.9082 1.66159 15.9994 1.56188 16.0718C1.46218 16.1441 1.3492 16.196 1.22941 16.2247C1.10962 16.2533 0.985361 16.2581 0.863724 16.2388C0.742087 16.2194 0.625456 16.1762 0.520491 16.1118C0.415526 16.0474 0.324282 15.9629 0.251968 15.8632C0.179654 15.7635 0.127688 15.6505 0.0990348 15.5307C0.0703819 15.4109 0.065604 15.2866 0.084974 15.165C0.260392 14.0723 0.696693 13.0379 1.35689 12.1497C2.01709 11.2615 2.88171 10.5455 3.87747 10.0625C3.44206 9.65367 3.09516 9.15984 2.85823 8.61158C2.62129 8.06332 2.49936 7.47227 2.49997 6.875ZM13.75 5.00001C14.4762 5.00051 15.1867 5.21183 15.7952 5.60832C16.4037 6.0048 16.884 6.56939 17.1779 7.23356C17.4717 7.89774 17.5664 8.63292 17.4505 9.34988C17.3346 10.0668 17.0131 10.7347 16.525 11.2725C17.2858 11.6502 17.9619 12.1788 18.512 12.8261C19.0621 13.4733 19.4748 14.2257 19.725 15.0375C19.7745 15.1951 19.7815 15.363 19.7452 15.5241C19.7089 15.6853 19.6306 15.834 19.5182 15.9551C19.4059 16.0762 19.2635 16.1654 19.1055 16.2137C18.9475 16.262 18.7796 16.2676 18.6187 16.23C18.458 16.1926 18.31 16.1135 18.1895 16.0007C18.069 15.8879 17.9804 15.7454 17.9325 15.5875C17.7084 14.8628 17.3002 14.2086 16.7476 13.6889C16.195 13.1692 15.5171 12.8017 14.78 12.6225C14.5753 12.5731 14.3932 12.4562 14.263 12.2907C14.1328 12.1251 14.0622 11.9206 14.0625 11.71V11.27C14.0624 11.0955 14.111 10.9244 14.2029 10.776C14.2947 10.6275 14.4262 10.5077 14.5825 10.43C14.9614 10.2422 15.2658 9.93179 15.446 9.54919C15.6263 9.16659 15.6719 8.73429 15.5755 8.32249C15.479 7.91069 15.2462 7.54359 14.9148 7.28082C14.5834 7.01804 14.1729 6.87503 13.75 6.875C13.5013 6.875 13.2629 6.77623 13.0871 6.60042C12.9112 6.4246 12.8125 6.18615 12.8125 5.93751C12.8125 5.68886 12.9112 5.45041 13.0871 5.27459C13.2629 5.09878 13.5013 5.00001 13.75 5.00001ZM6.87497 4.37501C6.54205 4.36748 6.21098 4.42654 5.90119 4.54872C5.59141 4.6709 5.30916 4.85374 5.07101 5.08651C4.83286 5.31928 4.64361 5.59727 4.51438 5.90419C4.38515 6.2111 4.31854 6.54073 4.31845 6.87374C4.31837 7.20675 4.38482 7.53642 4.5139 7.84339C4.64297 8.15037 4.83208 8.42846 5.07011 8.66135C5.30815 8.89423 5.59031 9.07722 5.90003 9.19955C6.20975 9.32189 6.5408 9.38112 6.87372 9.37375C7.52693 9.35931 8.14852 9.08972 8.60544 8.62271C9.06236 8.15569 9.31829 7.52835 9.31845 6.87499C9.31862 6.22163 9.063 5.59417 8.60631 5.12692C8.14963 4.65967 7.52817 4.38978 6.87497 4.37501Z" fill="#181818"/>
</svg>
