<svg width="19" height="19" viewBox="0 0 19 19" fill="none" xmlns="http://www.w3.org/2000/svg">
<path d="M5.54165 7.91666C5.38507 7.91666 5.23201 7.96309 5.10182 8.05008C4.97163 8.13707 4.87016 8.26071 4.81024 8.40537C4.75032 8.55003 4.73464 8.70921 4.76519 8.86277C4.79574 9.01634 4.87114 9.1574 4.98185 9.26812C5.09257 9.37884 5.23363 9.45424 5.3872 9.48478C5.54077 9.51533 5.69995 9.49965 5.8446 9.43973C5.98926 9.37981 6.1129 9.27834 6.19989 9.14815C6.28688 9.01797 6.33331 8.8649 6.33331 8.70833C6.33331 8.49836 6.24991 8.297 6.10144 8.14854C5.95297 8.00007 5.75161 7.91666 5.54165 7.91666ZM15.0416 4.74999H14.25V2.37499C14.25 2.16503 14.1666 1.96367 14.0181 1.8152C13.8696 1.66674 13.6683 1.58333 13.4583 1.58333H5.54165C5.33168 1.58333 5.13032 1.66674 4.98185 1.8152C4.83339 1.96367 4.74998 2.16503 4.74998 2.37499V4.74999H3.95831C3.32842 4.74999 2.72433 5.00022 2.27893 5.44562C1.83354 5.89102 1.58331 6.49511 1.58331 7.12499V11.875C1.58331 12.5049 1.83354 13.109 2.27893 13.5544C2.72433 13.9998 3.32842 14.25 3.95831 14.25H4.74998V16.625C4.74998 16.835 4.83339 17.0363 4.98185 17.1848C5.13032 17.3333 5.33168 17.4167 5.54165 17.4167H13.4583C13.6683 17.4167 13.8696 17.3333 14.0181 17.1848C14.1666 17.0363 14.25 16.835 14.25 16.625V14.25H15.0416C15.6715 14.25 16.2756 13.9998 16.721 13.5544C17.1664 13.109 17.4166 12.5049 17.4166 11.875V7.12499C17.4166 6.49511 17.1664 5.89102 16.721 5.44562C16.2756 5.00022 15.6715 4.74999 15.0416 4.74999ZM6.33331 3.16666H12.6666V4.74999H6.33331V3.16666ZM12.6666 15.8333H6.33331V12.6667H12.6666V15.8333ZM15.8333 11.875C15.8333 12.085 15.7499 12.2863 15.6014 12.4348C15.453 12.5833 15.2516 12.6667 15.0416 12.6667H14.25V11.875C14.25 11.665 14.1666 11.4637 14.0181 11.3152C13.8696 11.1667 13.6683 11.0833 13.4583 11.0833H5.54165C5.33168 11.0833 5.13032 11.1667 4.98185 11.3152C4.83339 11.4637 4.74998 11.665 4.74998 11.875V12.6667H3.95831C3.74835 12.6667 3.54699 12.5833 3.39852 12.4348C3.25005 12.2863 3.16665 12.085 3.16665 11.875V7.12499C3.16665 6.91503 3.25005 6.71367 3.39852 6.5652C3.54699 6.41674 3.74835 6.33333 3.95831 6.33333H15.0416C15.2516 6.33333 15.453 6.41674 15.6014 6.5652C15.7499 6.71367 15.8333 6.91503 15.8333 7.12499V11.875Z" fill="#181818"/>
</svg>
