<svg width="23" height="23" viewBox="0 0 23 23" fill="none" xmlns="http://www.w3.org/2000/svg">
<path d="M3.83333 6.70833H6.70833C6.9625 6.70833 7.20625 6.60737 7.38598 6.42764C7.5657 6.24792 7.66667 6.00417 7.66667 5.75V4.79167C7.66667 4.28334 7.8686 3.79582 8.22805 3.43638C8.58749 3.07693 9.075 2.875 9.58333 2.875C10.0917 2.875 10.5792 3.07693 10.9386 3.43638C11.2981 3.79582 11.5 4.28334 11.5 4.79167V5.75C11.5 6.00417 11.601 6.24792 11.7807 6.42764C11.9604 6.60737 12.2042 6.70833 12.4583 6.70833H15.3333C15.5875 6.70833 15.8313 6.8093 16.011 6.98902C16.1907 7.16875 16.2917 7.4125 16.2917 7.66667V10.5417C16.2917 10.7958 16.3926 11.0396 16.5724 11.2193C16.7521 11.399 16.9958 11.5 17.25 11.5H18.2083C18.7167 11.5 19.2042 11.7019 19.5636 12.0614C19.9231 12.4208 20.125 12.9083 20.125 13.4167C20.125 13.925 19.9231 14.4125 19.5636 14.772C19.2042 15.1314 18.7167 15.3333 18.2083 15.3333H17.25C16.9958 15.3333 16.7521 15.4343 16.5724 15.614C16.3926 15.7937 16.2917 16.0375 16.2917 16.2917V19.1667C16.2917 19.4208 16.1907 19.6646 16.011 19.8443C15.8313 20.024 15.5875 20.125 15.3333 20.125H12.4583C12.2042 20.125 11.9604 20.024 11.7807 19.8443C11.601 19.6646 11.5 19.4208 11.5 19.1667V18.2083C11.5 17.7 11.2981 17.2125 10.9386 16.853C10.5792 16.4936 10.0917 16.2917 9.58333 16.2917C9.075 16.2917 8.58749 16.4936 8.22805 16.853C7.8686 17.2125 7.66667 17.7 7.66667 18.2083V19.1667C7.66667 19.4208 7.5657 19.6646 7.38598 19.8443C7.20625 20.024 6.9625 20.125 6.70833 20.125H3.83333C3.57917 20.125 3.33541 20.024 3.15569 19.8443C2.97597 19.6646 2.875 19.4208 2.875 19.1667V16.2917C2.875 16.0375 2.97597 15.7937 3.15569 15.614C3.33541 15.4343 3.57917 15.3333 3.83333 15.3333H4.79167C5.3 15.3333 5.78751 15.1314 6.14695 14.772C6.5064 14.4125 6.70833 13.925 6.70833 13.4167C6.70833 12.9083 6.5064 12.4208 6.14695 12.0614C5.78751 11.7019 5.3 11.5 4.79167 11.5H3.83333C3.57917 11.5 3.33541 11.399 3.15569 11.2193C2.97597 11.0396 2.875 10.7958 2.875 10.5417V7.66667C2.875 7.4125 2.97597 7.16875 3.15569 6.98902C3.33541 6.8093 3.57917 6.70833 3.83333 6.70833Z" stroke="#181818" stroke-width="2" stroke-linecap="round" stroke-linejoin="round"/>
</svg>
