<svg width="22" height="22" viewBox="0 0 22 22" fill="none" xmlns="http://www.w3.org/2000/svg">
<path d="M16.9428 15.3697C15.6898 15.6706 14.3818 15.656 13.1359 15.3273C11.89 14.9986 10.7451 14.3661 9.80362 13.4863C8.86217 12.6065 8.1536 11.507 7.74137 10.2861C7.32913 9.06532 7.22611 7.76132 7.44151 6.49091C7.40875 6.52255 7.37417 6.55224 7.33793 6.57982C7.08126 6.77507 6.76043 6.84749 6.11876 6.99232L5.53668 7.12432C3.28168 7.63491 2.15418 7.88974 1.8856 8.75232C1.61793 9.61399 2.3861 10.5132 3.92335 12.3108L4.32118 12.7756C4.75751 13.2862 4.9766 13.5419 5.07468 13.8572C5.17276 14.1735 5.13976 14.5145 5.07376 15.1956L5.01326 15.8162C4.78135 18.2151 4.66493 19.4141 5.3671 19.9467C6.06926 20.4802 7.12526 19.9943 9.23543 19.0217L9.78268 18.7706C10.3822 18.4937 10.6819 18.3562 11 18.3562C11.3181 18.3562 11.6178 18.4937 12.2183 18.7706L12.7637 19.0217C14.8748 19.9934 15.9308 20.4792 16.632 19.9476C17.3351 19.4141 17.2187 18.2151 16.9868 15.8162L16.9428 15.3697Z" fill="#181818"/>
<path opacity="0.5" d="M8.82694 5.20091L8.82697 5.20085C9.41585 4.14487 9.83088 3.40308 10.2021 2.91834C10.5731 2.43395 10.8057 2.33333 11 2.33333C11.1943 2.33333 11.427 2.43395 11.7979 2.91834C12.1692 3.40308 12.5842 4.14487 13.1731 5.20085L13.4726 5.73934L13.4728 5.73972C13.4882 5.76734 13.5033 5.7946 13.5183 5.82151C13.8031 6.33362 14.0169 6.71795 14.3585 6.97777L14.3592 6.97829C14.7046 7.24012 15.1273 7.33527 15.6807 7.45987C15.7102 7.4665 15.74 7.4732 15.7701 7.48002L16.3529 7.61198L16.3531 7.61203C17.4975 7.87068 18.2975 8.05319 18.8503 8.27113C19.3937 8.48537 19.569 8.68453 19.636 8.90051L19.6361 8.90097C19.7051 9.12259 19.6721 9.40174 19.3491 9.91501C19.0227 10.4337 18.4761 11.075 17.6968 11.9858L17.2991 12.4504C17.2991 12.4504 17.299 12.4504 17.299 12.4504C17.2808 12.4717 17.2628 12.4927 17.245 12.5134C16.8617 12.9605 16.5776 13.2918 16.4479 13.7087L16.4478 13.7091C16.3328 14.0798 16.3549 14.4692 16.4018 14.9724C15.3607 15.1578 14.2899 15.1148 13.2641 14.8443C12.098 14.5367 11.0264 13.9448 10.1452 13.1214C9.26409 12.2981 8.60091 11.2691 8.21509 10.1265C7.84488 9.03015 7.74114 7.86214 7.91148 6.71901C8.11276 6.48326 8.27895 6.18448 8.48085 5.82151C8.49578 5.79466 8.51092 5.76746 8.52627 5.73991C8.5263 5.73985 8.52634 5.73978 8.52637 5.73972L8.82694 5.20091Z" fill="#FF9A02" stroke="black"/>
</svg>
